<svg width="94" height="95" viewBox="0 0 94 95" fill="none" xmlns="http://www.w3.org/2000/svg">
<path d="M0.0814209 0H93.5813V94.5405H0.0814209V0Z" fill="white" fill-opacity="0.01"/>
<path d="M66.3105 11.8169H27.3522C18.7458 11.8169 11.7689 18.8714 11.7689 27.5736V66.9655C11.7689 75.6678 18.7458 82.7223 27.3522 82.7223H66.3105C74.917 82.7223 81.8938 75.6678 81.8938 66.9655V27.5736C81.8938 18.8714 74.917 11.8169 66.3105 11.8169Z" stroke="#A89B9B" stroke-width="8" stroke-linejoin="round"/>
<path d="M46.8312 63.0267C55.4377 63.0267 62.4145 55.9722 62.4145 47.2699C62.4145 38.5677 55.4377 31.5132 46.8312 31.5132C38.2248 31.5132 31.2479 38.5677 31.2479 47.2699C31.2479 55.9722 38.2248 63.0267 46.8312 63.0267Z" stroke="#A89B9B" stroke-width="8" stroke-linejoin="round"/>
<path d="M68.2584 29.5437C70.41 29.5437 72.1542 27.7801 72.1542 25.6045C72.1542 23.4289 70.41 21.6653 68.2584 21.6653C66.1067 21.6653 64.3625 23.4289 64.3625 25.6045C64.3625 27.7801 66.1067 29.5437 68.2584 29.5437Z" fill="#A89B9B"/>
</svg>
