<svg width="34" height="33" viewBox="0 0 34 33" fill="none" xmlns="http://www.w3.org/2000/svg">
<path d="M24.7101 0.619995C23.9813 0.659475 23.2526 0.738433 22.5643 0.97531C21.4711 1.3701 20.4185 1.9623 19.5277 2.83084C19.2715 2.98926 19.055 3.20184 18.8943 3.45284C18.7336 3.70384 18.6329 3.98686 18.5995 4.28095C18.5661 4.57504 18.601 4.87269 18.7015 5.15187C18.802 5.43106 18.9656 5.68464 19.1802 5.89386C19.3947 6.10309 19.6548 6.2626 19.9411 6.3606C20.2274 6.45861 20.5326 6.49259 20.8342 6.46005C21.1358 6.42751 21.4261 6.32927 21.6835 6.1726C21.9409 6.01592 22.1589 5.80483 22.3214 5.55493C22.7667 5.12065 23.2931 4.88377 23.8599 4.68638C25.2769 4.21262 27.0179 4.41002 28.1515 5.55493C29.7305 7.09462 29.7305 9.66079 28.1515 11.24L22.0784 17.1619C20.297 18.899 18.8395 19.0569 17.7868 19.0174C16.7341 18.9779 16.1268 18.5042 16.1268 18.5042C15.8929 18.3746 15.635 18.2912 15.368 18.2587C15.101 18.2263 14.8301 18.2454 14.5707 18.3151C14.3113 18.3847 14.0685 18.5035 13.8562 18.6647C13.6438 18.8258 13.4661 19.0262 13.3332 19.2543C13.2003 19.4824 13.1147 19.7338 13.0815 19.9942C13.0482 20.2545 13.0678 20.5187 13.1393 20.7717C13.2107 21.0246 13.3325 21.2614 13.4978 21.4684C13.663 21.6755 13.8685 21.8488 14.1025 21.9784C14.1025 21.9784 15.479 22.8469 17.5034 22.9654C19.5277 23.0838 22.3619 22.3337 24.8316 19.886L30.9047 13.964C34.0627 10.8847 34.0627 5.91024 30.9047 2.87032C29.771 1.7649 28.4349 1.09375 26.9774 0.777913C26.2486 0.619995 25.4389 0.619995 24.7101 0.659475V0.619995ZM16.6127 9.73975C14.5883 9.66079 11.7947 10.3319 9.40594 12.7007L3.33286 18.6226C0.174855 21.702 0.174855 26.6764 3.33286 29.7163C5.60014 31.9272 8.83912 32.5589 11.6732 31.5719C12.7664 31.1771 13.819 30.5849 14.7098 29.7163C14.9661 29.5579 15.1825 29.3454 15.3432 29.0943C15.5039 28.8433 15.6046 28.5603 15.638 28.2662C15.6714 27.9721 15.6365 27.6745 15.536 27.3953C15.4355 27.1161 15.2719 26.8625 15.0574 26.6533C14.8428 26.4441 14.5827 26.2846 14.2964 26.1866C14.0101 26.0886 13.7049 26.0546 13.4033 26.0871C13.1017 26.1197 12.8114 26.2179 12.554 26.3746C12.2966 26.5313 12.0786 26.7424 11.9161 26.9923C11.4708 27.4265 10.9445 27.6634 10.3776 27.8608C8.96058 28.3346 7.21963 28.1372 6.08599 26.9923C4.50699 25.4526 4.50699 22.8864 6.08599 21.3072L12.1591 15.3853C13.7786 13.8061 15.1956 13.6087 16.3293 13.6482C17.4629 13.6877 18.2322 14.0035 18.2322 14.0035C18.4694 14.177 18.7428 14.2976 19.033 14.3566C19.3233 14.4157 19.6233 14.4119 19.9119 14.3455C20.2005 14.2791 20.4706 14.1517 20.7031 13.9722C20.9356 13.7928 21.1248 13.5657 21.2574 13.3071C21.39 13.0485 21.4627 12.7647 21.4705 12.4756C21.4782 12.1866 21.4207 11.8994 21.302 11.6345C21.1834 11.3695 21.0065 11.1332 20.7838 10.9422C20.5612 10.7512 20.2982 10.6103 20.0136 10.5293C20.0136 10.5293 18.637 9.73975 16.6127 9.66079V9.73975Z" fill="#A89B9B"/>
</svg>
