<svg width="51" height="50" viewBox="0 0 51 50" fill="none" xmlns="http://www.w3.org/2000/svg">
<rect x="0.5" width="50" height="50" rx="12" fill="white"/>
<path d="M38.2068 12.0198C34.1283 7.99339 27.4868 7.99339 23.4127 12.0198L12.1126 23.1673C12.039 23.2399 12 23.3383 12 23.4408C12 23.5434 12.039 23.6417 12.1126 23.7144L13.7102 25.2916C13.7832 25.3634 13.8821 25.4037 13.9851 25.4037C14.0882 25.4037 14.187 25.3634 14.2601 25.2916L25.5602 14.1442C26.9629 12.7593 28.829 11.9984 30.8119 11.9984C32.7948 11.9984 34.6609 12.7593 36.0593 14.1442C37.4621 15.529 38.2328 17.3713 38.2328 19.3247C38.2328 21.2823 37.4621 23.1203 36.0593 24.5051L24.5427 35.8706L22.6767 37.7128C20.9319 39.4354 18.096 39.4354 16.3512 37.7128C15.507 36.8793 15.0437 35.7723 15.0437 34.5926C15.0437 33.4129 15.507 32.3058 16.3512 31.4723L27.7769 20.1966C28.067 19.9145 28.448 19.7564 28.855 19.7564H28.8593C29.2663 19.7564 29.6429 19.9145 29.9287 20.1966C30.2188 20.483 30.3746 20.8591 30.3746 21.2609C30.3746 21.6584 30.2144 22.0346 29.9287 22.3167L20.5899 31.5279C20.5163 31.6005 20.4773 31.6989 20.4773 31.8014C20.4773 31.904 20.5163 32.0023 20.5899 32.075L22.1875 33.6522C22.2605 33.724 22.3593 33.7643 22.4624 33.7643C22.5654 33.7643 22.6643 33.724 22.7373 33.6522L32.0718 24.4368C32.9334 23.5862 33.4053 22.4577 33.4053 21.2567C33.4053 20.0556 32.9291 18.9229 32.0718 18.0765C30.2924 16.3198 27.4002 16.3241 25.6208 18.0765L24.5124 19.1751L14.1994 29.3522C13.4995 30.0392 12.9447 30.8565 12.5671 31.7568C12.1896 32.6571 11.9968 33.6225 12 34.5969C12 36.5759 12.7837 38.4352 14.1994 39.8329C15.6672 41.2776 17.5895 42 19.5118 42C21.4341 42 23.3564 41.2776 24.8198 39.8329L38.2068 26.6252C40.1767 24.6761 41.2678 22.0816 41.2678 19.3247C41.2721 16.5634 40.181 13.9689 38.2068 12.0198Z" fill="#096E44"/>
</svg>
