<svg width="50" height="50" viewBox="0 0 50 50" fill="none" xmlns="http://www.w3.org/2000/svg">
<rect width="50" height="50" rx="12" fill="white"/>
<path d="M19.9889 39H16.6593C12.9815 39 10 36.0019 10 32.3036V21.7695C10 19.4279 11.2163 17.2563 13.2077 16.0427L21.5318 10.9697C23.6533 9.67678 26.3134 9.67678 28.4348 10.9697L36.7589 16.0427C38.7504 17.2563 39.9667 19.4279 39.9667 21.7695V32.3036C39.9667 36.0019 36.9852 39 33.3074 39H29.9778M19.9889 39V32.3036C19.9889 29.5298 22.2249 27.2813 24.9833 27.2813C27.7418 27.2813 29.9778 29.5298 29.9778 32.3036V39M19.9889 39H29.9778" stroke="#096E44" stroke-width="3" stroke-linecap="round" stroke-linejoin="round"/>
</svg>
