<svg xmlns="http://www.w3.org/2000/svg" xmlns:xlink="http://www.w3.org/1999/xlink" width="50" zoomAndPan="magnify" viewBox="0 0 37.5 37.499999" height="50" preserveAspectRatio="xMidYMid meet" version="1.0"><defs><clipPath id="6b3bc6174f"><path d="M 0 0 L 37 0 L 37 37.007812 L 0 37.007812 Z M 0 0 " clip-rule="nonzero"/></clipPath><clipPath id="5f76cd1237"><path d="M -0.378906 9.621094 L -0.378906 27.386719 C -0.378906 32.699219 3.929688 37.007812 9.242188 37.007812 L 27.761719 37.007812 C 33.078125 37.007812 37.382812 32.699219 37.382812 27.386719 L 37.382812 9.621094 C 37.382812 7.070312 36.371094 4.621094 34.566406 2.816406 C 32.761719 1.015625 30.3125 0 27.761719 0 L 9.242188 0 C 3.929688 0 -0.378906 4.308594 -0.378906 9.621094 Z M -0.378906 9.621094 " clip-rule="nonzero"/></clipPath><clipPath id="dfc6da9489"><path d="M 5 6 L 32 6 L 32 32 L 5 32 Z M 5 6 " clip-rule="nonzero"/></clipPath><clipPath id="78574ba9a3"><path d="M -0.378906 9.621094 L -0.378906 27.386719 C -0.378906 32.699219 3.929688 37.007812 9.242188 37.007812 L 27.761719 37.007812 C 33.078125 37.007812 37.382812 32.699219 37.382812 27.386719 L 37.382812 9.621094 C 37.382812 7.070312 36.371094 4.621094 34.566406 2.816406 C 32.761719 1.015625 30.3125 0 27.761719 0 L 9.242188 0 C 3.929688 0 -0.378906 4.308594 -0.378906 9.621094 Z M -0.378906 9.621094 " clip-rule="nonzero"/></clipPath><clipPath id="a7bd5952aa"><path d="M 7 7 L 30 7 L 30 31 L 7 31 Z M 7 7 " clip-rule="nonzero"/></clipPath><clipPath id="b07a22c5b0"><path d="M -0.378906 9.621094 L -0.378906 27.386719 C -0.378906 32.699219 3.929688 37.007812 9.242188 37.007812 L 27.761719 37.007812 C 33.078125 37.007812 37.382812 32.699219 37.382812 27.386719 L 37.382812 9.621094 C 37.382812 7.070312 36.371094 4.621094 34.566406 2.816406 C 32.761719 1.015625 30.3125 0 27.761719 0 L 9.242188 0 C 3.929688 0 -0.378906 4.308594 -0.378906 9.621094 Z M -0.378906 9.621094 " clip-rule="nonzero"/></clipPath><clipPath id="4402946654"><path d="M 17 18 L 20 18 L 20 24 L 17 24 Z M 17 18 " clip-rule="nonzero"/></clipPath><clipPath id="5a459310d4"><path d="M -0.378906 9.621094 L -0.378906 27.386719 C -0.378906 32.699219 3.929688 37.007812 9.242188 37.007812 L 27.761719 37.007812 C 33.078125 37.007812 37.382812 32.699219 37.382812 27.386719 L 37.382812 9.621094 C 37.382812 7.070312 36.371094 4.621094 34.566406 2.816406 C 32.761719 1.015625 30.3125 0 27.761719 0 L 9.242188 0 C 3.929688 0 -0.378906 4.308594 -0.378906 9.621094 Z M -0.378906 9.621094 " clip-rule="nonzero"/></clipPath><clipPath id="1f5d788270"><path d="M 17 14 L 20 14 L 20 16 L 17 16 Z M 17 14 " clip-rule="nonzero"/></clipPath><clipPath id="f3f06188d9"><path d="M -0.378906 9.621094 L -0.378906 27.386719 C -0.378906 32.699219 3.929688 37.007812 9.242188 37.007812 L 27.761719 37.007812 C 33.078125 37.007812 37.382812 32.699219 37.382812 27.386719 L 37.382812 9.621094 C 37.382812 7.070312 36.371094 4.621094 34.566406 2.816406 C 32.761719 1.015625 30.3125 0 27.761719 0 L 9.242188 0 C 3.929688 0 -0.378906 4.308594 -0.378906 9.621094 Z M -0.378906 9.621094 " clip-rule="nonzero"/></clipPath><clipPath id="aa48dfe331"><path d="M 4.886719 5 L 34 5 L 34 34.492188 L 4.886719 34.492188 Z M 4.886719 5 " clip-rule="nonzero"/></clipPath><clipPath id="45959a6d00"><path d="M 5.328125 32.714844 C 4.515625 11.621094 4.957031 7.84375 5.699219 6.511719 C 5.996094 5.921875 6.144531 5.773438 6.734375 5.550781 C 8.511719 4.8125 14.730469 5.179688 18.503906 5.179688 C 22.054688 5.179688 26.570312 5.179688 28.792969 5.625 C 29.828125 5.847656 30.417969 5.625 31.085938 6.4375 C 32.863281 8.511719 34.269531 19.09375 33.75 23.535156 C 33.453125 26.570312 32.566406 29.308594 30.863281 30.9375 C 29.382812 32.492188 25.90625 33.230469 24.574219 33.378906 C 23.90625 33.453125 23.460938 33.453125 23.167969 33.230469 C 22.871094 33.011719 22.574219 32.492188 22.574219 32.121094 C 22.648438 31.675781 23.167969 31.085938 23.832031 30.789062 C 25.089844 30.199219 29.828125 31.75 30.714844 30.714844 C 31.457031 29.753906 29.53125 27.3125 29.457031 25.089844 C 29.308594 22.128906 29.902344 15.988281 30.789062 14.359375 C 31.085938 13.765625 31.53125 13.394531 31.898438 13.394531 C 32.34375 13.324219 33.011719 13.765625 33.378906 14.433594 C 34.269531 16.0625 34.046875 22.574219 33.601562 25.164062 C 33.304688 26.71875 32.9375 27.753906 32.269531 28.71875 C 31.675781 29.679688 30.789062 30.269531 29.902344 30.9375 C 28.863281 31.675781 27.679688 32.417969 26.496094 32.789062 C 25.386719 33.230469 24.425781 33.304688 22.945312 33.453125 C 20.5 33.675781 15.988281 33.675781 13.175781 33.453125 C 11.027344 33.304688 8.660156 33.15625 7.625 32.492188 C 7.03125 32.195312 6.585938 31.75 6.660156 31.308594 C 6.660156 30.863281 7.253906 30.199219 7.992188 29.902344 C 9.769531 29.234375 15.171875 31.011719 18.28125 31.011719 C 21.019531 31.085938 25.3125 29.679688 25.832031 30.417969 C 26.199219 30.863281 25.535156 32.269531 24.644531 32.863281 C 22.945312 34.046875 15.839844 34.859375 14.0625 34.195312 C 13.324219 33.898438 12.730469 33.230469 12.730469 32.789062 C 12.730469 32.34375 13.394531 31.605469 13.765625 31.53125 C 14.210938 31.53125 15.320312 32.195312 15.394531 32.640625 C 15.46875 33.082031 14.65625 34.121094 14.210938 34.195312 C 13.765625 34.195312 12.804688 33.378906 12.730469 32.9375 C 12.65625 32.492188 13.027344 31.972656 13.617188 31.605469 C 15.394531 30.566406 24.792969 29.457031 26.570312 30.125 C 27.089844 30.269531 27.3125 30.566406 27.457031 30.9375 C 27.605469 31.382812 27.53125 32.195312 27.164062 32.640625 C 26.792969 33.15625 25.832031 33.378906 24.867188 33.601562 C 23.238281 33.898438 20.796875 33.75 18.355469 33.601562 C 15.171875 33.453125 9.175781 33.527344 7.625 32.492188 C 6.957031 32.121094 6.585938 31.457031 6.660156 31.011719 C 6.734375 30.566406 7.253906 30.125 7.992188 29.902344 C 10.214844 29.160156 19.019531 31.085938 22.425781 30.789062 C 24.425781 30.640625 25.757812 30.417969 27.089844 29.753906 C 28.347656 29.085938 29.753906 27.902344 30.417969 26.792969 C 30.9375 25.90625 31.011719 25.015625 31.085938 23.757812 C 31.308594 21.539062 30.050781 16.28125 30.714844 14.65625 C 31.011719 13.914062 31.75 13.324219 32.269531 13.394531 C 32.714844 13.394531 33.15625 13.988281 33.378906 14.730469 C 33.972656 16.652344 32.046875 23.238281 31.972656 26.496094 C 31.972656 28.792969 33.011719 31.308594 32.492188 32.34375 C 32.195312 32.9375 31.824219 33.082031 31.160156 33.304688 C 29.753906 33.75 25.535156 33.898438 24.054688 33.453125 C 23.386719 33.230469 22.722656 32.863281 22.648438 32.417969 C 22.574219 31.972656 22.945312 31.234375 23.535156 30.863281 C 24.425781 30.199219 27.238281 30.714844 28.421875 29.828125 C 29.605469 29.011719 30.269531 27.53125 30.640625 25.683594 C 31.382812 22.648438 30.492188 15.988281 29.976562 12.804688 C 29.679688 10.953125 30.125 9.324219 28.792969 8.289062 C 25.980469 6.070312 11.101562 5.328125 8.140625 7.769531 C 6.363281 9.25 7.105469 12.0625 6.957031 14.949219 C 6.660156 19.464844 8.4375 30.125 7.476562 32.34375 C 7.253906 33.011719 6.808594 33.378906 6.4375 33.378906 C 6.070312 33.453125 5.328125 32.714844 5.328125 32.714844 " clip-rule="nonzero"/></clipPath><clipPath id="5216f2be27"><path d="M 8.425781 2.089844 L 28.800781 2.089844 L 28.800781 8.320312 L 8.425781 8.320312 Z M 8.425781 2.089844 " clip-rule="nonzero"/></clipPath><clipPath id="a580dff341"><path d="M 28.125 6.511719 C 22.574219 7.769531 17.613281 5.996094 14.875 5.996094 C 12.953125 5.921875 11.027344 6.882812 10.066406 6.511719 C 9.546875 6.363281 9.105469 5.847656 9.105469 5.402344 C 9.105469 4.957031 9.398438 4.292969 10.066406 3.996094 C 11.84375 3.109375 19.167969 4.144531 22.128906 4.441406 C 23.90625 4.664062 25.609375 4.664062 26.347656 5.179688 C 26.792969 5.550781 27.015625 6.144531 26.941406 6.585938 C 26.867188 7.03125 26.347656 7.476562 25.609375 7.699219 C 23.683594 8.289062 16.949219 6.585938 14.0625 6.585938 C 12.210938 6.585938 10.65625 7.328125 9.695312 6.957031 C 9.105469 6.734375 8.511719 6.070312 8.511719 5.625 C 8.511719 5.179688 9.105469 4.515625 9.769531 4.292969 C 10.65625 3.921875 13.175781 4.070312 14.0625 4.515625 C 14.65625 4.738281 15.097656 5.179688 15.097656 5.625 C 15.097656 6.070312 14.65625 6.734375 14.0625 7.03125 C 13.175781 7.550781 10.363281 7.476562 9.472656 7.03125 C 8.957031 6.808594 8.511719 6.363281 8.4375 5.921875 C 8.4375 5.550781 8.734375 4.886719 9.175781 4.589844 C 9.84375 4.144531 12.136719 4.144531 12.953125 4.515625 C 13.46875 4.738281 13.839844 5.253906 13.914062 5.625 C 13.988281 5.996094 13.617188 6.585938 13.25 6.882812 C 12.582031 7.328125 10.804688 7.625 10.066406 7.402344 C 9.546875 7.253906 9.105469 6.808594 9.03125 6.4375 C 8.882812 6.070312 9.175781 5.328125 9.546875 5.105469 C 10.140625 4.664062 12.210938 4.589844 12.953125 4.886719 C 13.394531 5.105469 13.839844 5.625 13.914062 5.996094 C 13.988281 6.363281 13.691406 6.957031 13.25 7.253906 C 12.582031 7.769531 10.582031 8.4375 9.84375 8.140625 C 9.324219 7.992188 8.882812 7.253906 8.882812 6.808594 C 8.882812 6.363281 9.324219 5.921875 9.84375 5.699219 C 10.4375 5.402344 12.0625 5.328125 12.65625 5.625 C 13.101562 5.921875 13.394531 6.511719 13.394531 6.882812 C 13.394531 7.328125 12.953125 7.84375 12.507812 8.066406 C 11.84375 8.289062 10.140625 8.140625 9.546875 7.625 C 9.105469 7.179688 8.957031 5.996094 9.105469 5.253906 C 9.25 4.441406 9.84375 3.40625 10.582031 2.886719 C 11.472656 2.292969 13.542969 1.925781 14.210938 2.367188 C 14.65625 2.589844 14.800781 3.40625 14.730469 3.847656 C 14.582031 4.21875 14.136719 4.589844 13.839844 4.664062 C 13.394531 4.738281 12.359375 4.070312 12.210938 3.699219 C 12.0625 3.332031 12.285156 2.738281 12.507812 2.515625 C 12.804688 2.21875 13.324219 2 13.691406 2.144531 C 14.136719 2.292969 14.800781 3.257812 14.730469 3.699219 C 14.730469 4.070312 14.285156 4.441406 13.914062 4.589844 C 13.46875 4.886719 12.433594 4.441406 12.0625 4.738281 C 11.695312 5.03125 11.917969 6.21875 11.621094 6.292969 C 11.472656 6.363281 10.730469 5.625 10.804688 5.550781 C 10.878906 5.402344 12.582031 5.402344 12.953125 5.847656 C 13.25 6.21875 13.324219 7.328125 13.027344 7.699219 C 12.582031 8.289062 10.582031 8.4375 9.84375 8.140625 C 9.398438 7.992188 8.957031 7.476562 8.882812 7.105469 C 8.808594 6.734375 9.105469 6.144531 9.546875 5.773438 C 10.140625 5.253906 11.84375 4.738281 12.65625 4.886719 C 13.175781 4.957031 13.839844 5.550781 13.914062 5.996094 C 13.988281 6.4375 13.46875 7.105469 12.953125 7.402344 C 12.285156 7.769531 10.804688 7.699219 10.066406 7.402344 C 9.621094 7.253906 9.105469 6.808594 9.03125 6.4375 C 8.882812 6.070312 9.175781 5.402344 9.546875 5.105469 C 10.140625 4.589844 12.210938 4.292969 12.953125 4.515625 C 13.394531 4.664062 13.914062 5.253906 13.914062 5.625 C 13.914062 6.070312 13.46875 6.734375 12.953125 7.03125 C 12.210938 7.402344 10.214844 7.402344 9.472656 7.03125 C 8.957031 6.808594 8.511719 6.363281 8.4375 5.921875 C 8.4375 5.476562 8.882812 4.8125 9.472656 4.515625 C 10.363281 3.996094 13.175781 3.921875 14.0625 4.515625 C 14.65625 4.8125 15.097656 5.773438 15.023438 6.21875 C 14.949219 6.660156 14.359375 6.957031 13.765625 7.105469 C 12.730469 7.402344 9.769531 7.402344 9.105469 6.734375 C 8.660156 6.292969 8.585938 5.179688 8.882812 4.738281 C 9.175781 4.21875 10.066406 4.144531 11.101562 3.996094 C 13.914062 3.699219 24.128906 3.773438 26.050781 5.105469 C 26.71875 5.550781 27.015625 6.4375 26.867188 6.882812 C 26.71875 7.253906 26.273438 7.550781 25.609375 7.699219 C 23.3125 8.289062 12.0625 7.402344 10.066406 6.511719 C 9.546875 6.292969 9.324219 6.070312 9.175781 5.699219 C 9.03125 5.402344 9.03125 4.8125 9.324219 4.515625 C 9.769531 3.996094 11.027344 3.550781 12.433594 3.40625 C 15.097656 3.183594 21.613281 5.328125 24.425781 5.179688 C 25.90625 5.105469 27.015625 4.144531 27.753906 4.367188 C 28.273438 4.441406 28.71875 4.8125 28.792969 5.179688 C 28.863281 5.550781 28.125 6.511719 28.125 6.511719 " clip-rule="nonzero"/></clipPath></defs><g clip-path="url(#6b3bc6174f)"><g clip-path="url(#5f76cd1237)"><path fill="#ffffff" d="M 8.878906 0 L 28.113281 0 C 28.699219 0 29.273438 0.0585938 29.847656 0.171875 C 30.417969 0.285156 30.972656 0.453125 31.511719 0.675781 C 32.050781 0.898438 32.5625 1.171875 33.046875 1.496094 C 33.53125 1.820312 33.980469 2.1875 34.394531 2.601562 C 34.804688 3.015625 35.171875 3.460938 35.496094 3.945312 C 35.820312 4.433594 36.09375 4.945312 36.316406 5.484375 C 36.539062 6.023438 36.710938 6.578125 36.824219 7.148438 C 36.9375 7.722656 36.992188 8.296875 36.992188 8.882812 L 36.992188 28.125 C 36.992188 28.707031 36.9375 29.285156 36.824219 29.859375 C 36.710938 30.429688 36.539062 30.984375 36.316406 31.523438 C 36.09375 32.0625 35.820312 32.574219 35.496094 33.058594 C 35.171875 33.542969 34.804688 33.992188 34.394531 34.40625 C 33.980469 34.816406 33.53125 35.1875 33.046875 35.507812 C 32.5625 35.832031 32.050781 36.105469 31.511719 36.332031 C 30.972656 36.554688 30.417969 36.722656 29.847656 36.835938 C 29.273438 36.949219 28.699219 37.007812 28.113281 37.007812 L 8.878906 37.007812 C 8.292969 37.007812 7.714844 36.949219 7.144531 36.835938 C 6.574219 36.722656 6.019531 36.554688 5.480469 36.332031 C 4.941406 36.105469 4.429688 35.832031 3.945312 35.507812 C 3.460938 35.1875 3.011719 34.816406 2.597656 34.40625 C 2.1875 33.992188 1.820312 33.542969 1.496094 33.058594 C 1.171875 32.574219 0.898438 32.0625 0.675781 31.523438 C 0.449219 30.984375 0.28125 30.429688 0.167969 29.859375 C 0.0546875 29.285156 0 28.707031 0 28.125 L 0 8.882812 C 0 8.296875 0.0546875 7.722656 0.167969 7.148438 C 0.28125 6.578125 0.449219 6.023438 0.675781 5.484375 C 0.898438 4.945312 1.171875 4.433594 1.496094 3.945312 C 1.820312 3.460938 2.1875 3.015625 2.597656 2.601562 C 3.011719 2.1875 3.460938 1.820312 3.945312 1.496094 C 4.429688 1.171875 4.941406 0.898438 5.480469 0.675781 C 6.019531 0.453125 6.574219 0.285156 7.144531 0.171875 C 7.714844 0.0585938 8.292969 0 8.878906 0 Z M 8.878906 0 " fill-opacity="1" fill-rule="nonzero"/></g></g><g clip-path="url(#dfc6da9489)"><g clip-path="url(#78574ba9a3)"><path stroke-linecap="butt" transform="matrix(0.739905, 0, 0, 0.740132, -0.371837, 0.000000000000005259)" fill="none" stroke-linejoin="miter" d="M 9.002374 8.998612 L 41.998595 8.998612 L 41.998595 42.000558 L 9.002374 42.000558 Z M 9.002374 8.998612 " stroke="#096e44" stroke-width="1" stroke-opacity="1" stroke-miterlimit="4"/></g></g><g clip-path="url(#a7bd5952aa)"><g clip-path="url(#b07a22c5b0)"><path stroke-linecap="round" transform="matrix(0.739905, 0, 0, 0.740132, -0.371837, 0.000000000000005259)" fill="none" stroke-linejoin="round" d="M 25.500484 39.250836 C 33.092255 39.250836 39.24803 33.091669 39.24803 25.502224 C 39.24803 17.907501 33.092255 11.748334 25.500484 11.748334 C 17.908714 11.748334 11.747659 17.907501 11.747659 25.502224 C 11.747659 33.091669 17.908714 39.250836 25.500484 39.250836 Z M 25.500484 39.250836 " stroke="#096e44" stroke-width="3" stroke-opacity="1" stroke-miterlimit="4"/></g></g><g clip-path="url(#4402946654)"><g clip-path="url(#5a459310d4)"><path stroke-linecap="round" transform="matrix(0.739905, 0, 0, 0.740132, -0.371837, 0.000000000000005259)" fill="none" stroke-linejoin="round" d="M 25.500484 31.001669 L 25.500484 25.502224 " stroke="#096e44" stroke-width="2" stroke-opacity="1" stroke-miterlimit="4"/></g></g><g clip-path="url(#1f5d788270)"><g clip-path="url(#f3f06188d9)"><path stroke-linecap="round" transform="matrix(0.739905, 0, 0, 0.740132, -0.371837, 0.000000000000005259)" fill="none" stroke-linejoin="round" d="M 25.500484 19.997501 L 25.516323 19.997501 " stroke="#096e44" stroke-width="2" stroke-opacity="1" stroke-miterlimit="4"/></g></g><g clip-path="url(#aa48dfe331)"><g clip-path="url(#45959a6d00)"><path fill="#ffffff" d="M 1.332031 2.21875 L 36.75 2.21875 L 36.75 37.230469 L 1.332031 37.230469 Z M 1.332031 2.21875 " fill-opacity="1" fill-rule="nonzero"/></g></g><g clip-path="url(#5216f2be27)"><g clip-path="url(#a580dff341)"><path fill="#ffffff" d="M 5.476562 -0.8125 L 31.753906 -0.8125 L 31.753906 11.175781 L 5.476562 11.175781 Z M 5.476562 -0.8125 " fill-opacity="1" fill-rule="nonzero"/></g></g></svg>