<svg width="455" height="267" viewBox="0 0 455 267" fill="none" xmlns="http://www.w3.org/2000/svg">
<path d="M28.2253 228.998L43.3083 247.273" stroke="#13A267" stroke-width="2"/>
<path d="M30.8321 225.996L24.7812 230.985" stroke="#13A267" stroke-width="2" stroke-linecap="round" stroke-linejoin="round"/>
<path d="M48.7126 253.827C47.045 255.209 44.5743 254.97 43.1926 253.296C41.8177 251.628 42.0491 249.158 43.7235 247.776C45.391 246.401 47.8618 246.639 49.2435 248.307C50.6184 249.981 50.3802 252.452 48.7126 253.827Z" fill="#13A267" stroke="#13A267" stroke-width="2" stroke-linecap="round" stroke-linejoin="round"/>
<path d="M205.458 47.1699L190.198 29.0308" stroke="#13A267" stroke-width="2"/>
<path d="M202.878 50.1922L208.882 45.1486" stroke="#13A267" stroke-width="2" stroke-linecap="round" stroke-linejoin="round"/>
<path d="M184.732 22.531C186.386 21.1425 188.864 21.3535 190.252 23.0075C191.648 24.6683 191.437 27.139 189.776 28.5343C188.122 29.9296 185.651 29.7118 184.256 28.0579C182.861 26.4039 183.072 23.9263 184.732 22.531Z" fill="#13A267" stroke="#13A267" stroke-width="2" stroke-linecap="round" stroke-linejoin="round"/>
<path d="M36.4677 76.9277L14.796 86.5112" stroke="#13A267" stroke-width="2"/>
<path d="M38.6527 80.2492L35.4809 73.0752" stroke="#13A267" stroke-width="2" stroke-linecap="round" stroke-linejoin="round"/>
<path d="M7.02321 89.9488C6.15199 87.9682 7.04363 85.654 9.02431 84.7759C11.005 83.8979 13.3192 84.7964 14.1972 86.777C15.0752 88.7577 14.1768 91.0719 12.1961 91.9499C10.2154 92.8212 7.90124 91.9295 7.02321 89.9488Z" fill="#13A267" stroke="#13A267" stroke-width="2" stroke-linecap="round" stroke-linejoin="round"/>
<path d="M345.535 228.997L360.543 247.259" stroke="#13A267" stroke-width="2"/>
<path d="M348.148 226.003L342.09 230.979" stroke="#13A267" stroke-width="2" stroke-linecap="round" stroke-linejoin="round"/>
<path d="M365.933 253.827C364.259 255.202 361.788 254.957 360.413 253.282C359.038 251.615 359.283 249.144 360.958 247.769C362.632 246.394 365.103 246.633 366.471 248.307C367.846 249.981 367.608 252.452 365.933 253.827Z" fill="#13A267" stroke="#13A267" stroke-width="2" stroke-linecap="round" stroke-linejoin="round"/>
<path d="M19.8669 235.3L43.0632 214.364" stroke="#13A267" stroke-width="4"/>
<path d="M2 240.854L13.6458 230.352L24.1549 241.991L12.5091 252.5L2 240.854Z" fill="#13A267" stroke="#13A267" stroke-width="4" stroke-linecap="round" stroke-linejoin="round"/>
<path d="M50.421 197.163L38.782 207.666L49.2843 219.311L60.9301 208.802L50.421 197.163Z" fill="#13A267" stroke="#13A267" stroke-width="4" stroke-linecap="round" stroke-linejoin="round"/>
<path d="M249.938 152.677L263.496 136.505" stroke="#13A267" stroke-width="4"/>
<path d="M233.017 160.66L243.091 148.64L255.111 158.721L245.031 170.734L233.017 160.66Z" fill="#13A267" stroke="#13A267" stroke-width="4" stroke-linecap="round" stroke-linejoin="round"/>
<path d="M268.404 118.447L258.331 130.467L270.344 140.541L280.424 128.52L268.404 118.447Z" fill="#13A267" stroke="#13A267" stroke-width="4" stroke-linecap="round" stroke-linejoin="round"/>
<path d="M424.421 90.0916L448.142 103.786" stroke="#13A267" stroke-width="4"/>
<path d="M413.626 74.8043L427.205 82.6453L419.364 96.2241L405.785 88.3831L413.626 74.8043Z" fill="#13A267" stroke="#13A267" stroke-width="4" stroke-linecap="round" stroke-linejoin="round"/>
<path d="M330.431 37.0762L351.613 19.7062" stroke="#13A267" stroke-width="4"/>
<path d="M312.326 41.793L324.448 31.8488L334.399 43.971L322.277 53.9152L312.326 41.793Z" fill="#13A267" stroke="#13A267" stroke-width="4" stroke-linecap="round" stroke-linejoin="round"/>
<path d="M359.767 2.86684L347.645 12.811L357.596 24.9333L369.718 14.9891L359.767 2.86684Z" fill="#13A267" stroke="#13A267" stroke-width="4" stroke-linecap="round" stroke-linejoin="round"/>
<path d="M116.471 50.4438L107.861 24.4365" stroke="#13A267" stroke-width="4"/>
<path d="M114.367 69.0322L109.439 54.1465L124.325 49.2187L129.26 64.1043L114.367 69.0322Z" fill="#13A267" stroke="#13A267" stroke-width="4" stroke-linecap="round" stroke-linejoin="round"/>
<path d="M95.0781 10.7765L100.006 25.6622L114.892 20.7343L109.964 5.84864L95.0781 10.7765Z" fill="#13A267" stroke="#13A267" stroke-width="4" stroke-linecap="round" stroke-linejoin="round"/>
<path d="M78.2988 112.355C78.8978 112.355 79.4695 112.355 80.2863 112.11L88.5357 109.987L91.9389 108.952C93.3547 108.353 94.3892 106.937 94.9882 105.168L95.0971 104.841C95.6961 103.18 95.805 101.765 95.5872 100.839L95.3421 100.022L94.6343 98.1163L94.2803 96.7277L93.0007 93.0795L91.6939 90.1391C91.4761 89.6763 91.585 89.4312 91.34 88.9684C90.7682 87.4438 89.3525 86.1369 87.3378 85.783C86.8749 85.6741 86.4121 85.5652 86.0582 85.5652L78.2988 84.8573L75.6035 83.3327L75.2495 82.6248L77.3459 81.7808L80.2863 80.1473L82.7638 78.3776L84.5335 76.853C85.1053 76.254 85.7042 75.6822 86.1671 74.8655L87.2289 73.0958L88.5357 70.1554L89.9242 66.2894L90.2782 65.6904C90.986 64.5197 91.1222 63.104 91.1222 61.6882V59.8096L91.585 53.3571L91.4761 49.6L90.8771 47.4764C90.6321 46.7685 90.4143 46.1695 90.0603 45.4617L88.6446 43.0114L86.0582 39.1181L84.9964 37.8385L83.8257 36.6678L81.2392 34.5441L76.7742 31.7127C76.1752 31.3587 75.4674 31.0048 74.7867 30.787L71.4924 29.6163L68.552 28.6634L64.5498 28.0916L60.7927 27.9555L58.778 27.6016C58.3151 27.4927 57.6073 27.4927 57.1444 27.4927L50.093 27.6016L46.6897 27.9555L43.0415 27.4927H38.9304L31.9878 27.7377L24.3646 28.4184H24.2285C22.1321 28.5545 20.3624 29.4802 19.5457 30.787C18.7017 32.2027 18.4839 33.8363 18.7017 35.6059L18.8378 39.1181L18.5928 40.9966C18.4839 42.0584 18.5928 43.0114 18.8378 43.937L19.4095 46.4146L19.0556 48.0481C18.8378 49.246 18.5928 50.1717 18.8378 51.4786L19.1917 53.9289L18.9467 57.8222L19.1917 61.4704L19.0556 63.9207L19.1917 68.1679L19.4095 71.6801L19.0556 73.4497C18.8378 74.7293 18.8378 75.7911 19.0556 77.098L19.4095 78.7315L18.7017 81.0729C18.3477 82.1347 18.4839 83.0877 18.4839 84.0133L18.5928 86.4909L18.7017 88.4783C18.7017 89.0773 18.7017 89.3223 18.8378 89.8941L19.4095 92.6167L19.0556 97.1906L19.3006 100.131V104.351C19.1917 106.366 19.7635 107.999 20.8253 109.306C21.8871 110.477 23.7657 111.185 25.8893 110.94L28.8296 111.048L32.4507 111.294L39.3932 111.048L43.1504 110.695L44.4572 111.048C45.1651 111.294 46.4447 110.586 47.3976 109.415C48.4594 108.108 49.2762 106.583 49.2762 104.841V101.411L49.3851 97.1906V94.4952L49.494 92.7256L49.6301 93.0795L50.4469 94.9581L50.9097 96.2377C51.3726 97.5445 51.7265 98.4702 52.4344 99.3142L53.4962 100.485L55.0208 102.472C55.6198 103.18 55.8376 103.997 56.8994 104.596L57.9612 105.168L59.1319 106.475C60.0848 107.4 61.3644 107.999 62.5623 108.353L63.5969 108.707L66.7823 110.232L68.4159 111.048C69.1238 111.402 69.9678 111.756 70.6484 111.892L73.017 112.219L78.2988 112.355ZM48.9222 58.9929L49.494 57.9311C49.9841 57.1143 49.739 55.8075 49.2762 53.5749L50.8008 49.246L57.1444 50.2806L60.6565 53.466L60.4387 60.0547L57.7434 62.0421L51.7265 62.3961L48.9222 58.9929Z" fill="#16C27C"/>
<path d="M142.685 112.573L144.101 112.464L151.044 112.11L152.813 112.464C153.984 112.709 155.264 112.355 156.788 111.892L158.204 111.402L161.253 110.477L163.023 110.232C164.194 110.123 165.365 109.878 166.426 109.306L168.441 108.244L170.674 106.828L172.661 106.012C173.478 105.658 174.186 105.413 174.785 104.95L177.371 102.935L180.311 100.703L181.727 99.5319C182.299 98.9602 182.898 98.4701 183.361 97.7623L184.776 95.6659L186.301 93.1883L188.534 89.894L189.459 88.1516C189.949 87.4437 190.167 86.4908 190.412 85.674L190.766 84.0132L191.692 81.6718C191.937 81.0729 192.182 80.61 192.291 79.9022L192.754 77.3157L193.461 74.0214C193.598 73.3408 193.707 72.7418 193.707 71.925L193.461 66.7521L193.244 63.9206C193.108 62.8588 192.89 61.9332 192.4 60.8714L191.828 59.5645L190.521 55.9435L189.704 53.2209C189.459 52.6492 189.241 52.0502 188.888 51.3423L187.935 49.7088L186.655 46.8773L184.531 43.583L182.408 40.9966L179.495 38.1923L176.554 35.9598L175.492 35.0069C174.894 34.5441 174.54 34.4352 173.968 34.0812L170.674 32.4205L169.367 31.7126C168.904 31.3586 168.305 31.1408 167.733 30.8958L165.501 30.079C164.902 29.834 164.194 29.7251 163.622 29.6162L161.036 29.2623L159.729 28.3094C158.912 27.7376 157.278 27.6015 155.046 27.7376L150.69 27.6015L143.529 27.2476L139.99 27.4926H138.819C138.003 27.4926 137.05 27.6015 136.233 27.9554L133.755 28.7722L128.229 30.1879C127.058 30.5419 125.996 31.0047 124.934 31.8487L123.655 32.7744L121.667 34.0812L120.605 34.898L118.373 37.0216L116.603 37.5933C115.432 38.0562 114.262 39.0091 113.2 40.4248L112.71 41.1327L110.967 43.1202C110.722 43.4741 110.369 43.7191 110.123 44.182L108.49 46.5234L106.856 49.3549L105.658 51.3423C104.978 52.6492 104.488 54.0649 104.379 55.4534V56.4063L102.963 59.9185L102.5 61.3342C102.255 62.151 102.255 62.8588 102.255 63.8117V66.2893L101.547 73.3408V75.3282C101.547 76.39 101.792 77.4518 102.146 78.3775L102.745 80.0383L103.072 81.9169C103.208 83.0876 103.671 84.2583 104.27 85.3201L104.842 86.3819L106.502 90.0301L107.21 91.9087C107.564 92.9433 108.245 93.8962 108.953 94.713L110.015 95.8837L112.138 98.0073L114.942 100.703L116.957 102.472C117.665 103.18 118.482 103.643 119.299 103.997L121.177 104.841L123.655 106.828L125.533 107.999C126.595 108.707 128.011 109.17 129.29 109.306L130.107 109.415L132.939 110.341C133.538 110.586 134 110.694 134.463 110.831L136.941 111.185L138.711 112.001C139.745 112.464 141.161 112.709 142.685 112.573ZM134.708 66.1532L136.587 62.396L138.465 60.1635L140.344 57.577L143.529 56.2974L151.044 55.8074L153.739 58.176L157.142 60.1635L160.219 66.2893L160.083 73.0957L158.667 76.6078L156.434 80.1472L154.447 82.3797L150.799 83.9043L143.992 84.0132L141.27 82.3797L138.22 80.1472L135.77 76.4989L135.28 73.3408L134.708 66.1532Z" fill="#16C27C"/>
<path d="M232.356 112.465C233.064 112.573 233.772 112.573 234.48 112.465L240.224 112.002L243.764 111.539L246.813 111.648H248.937C249.862 111.648 250.815 111.403 251.632 111.049L254.681 109.987L257.622 109.306L259.391 109.17C260.317 109.061 261.27 108.707 262.196 108.353L264.101 107.401C264.564 107.183 265.027 106.829 265.49 106.475L267.722 104.95L269.492 102.827L271.97 100.948L273.249 99.5323C273.848 98.8244 274.311 98.1166 274.665 97.1909L275.373 95.7751C275.618 95.2034 275.836 94.6044 275.972 93.7877L276.19 92.7259C276.326 91.773 276.435 90.9562 276.326 90.1394L275.727 85.3205C275.727 84.7215 275.618 84.3676 275.482 83.9047L274.665 81.0732L273.848 77.8062L272.786 76.1454C272.324 75.3286 271.725 74.7296 270.908 74.0218L269.955 73.205C269.492 72.7422 268.92 72.3882 268.321 72.0343L265.98 70.8636L264.918 70.2646C263.856 69.5568 263.04 69.2028 261.978 68.985L259.745 68.5222L257.05 67.6782L260.562 65.7996L262.196 65.3368C263.148 65.0917 264.101 64.6289 265.027 63.921L266.334 62.9953C267.151 62.3964 267.722 61.9335 268.321 61.2257L269.846 59.2382L270.091 58.9932C271.262 57.3324 271.833 55.8078 272.078 53.9292L272.187 52.8674V46.0609C272.187 43.9373 271.616 42.1949 270.445 40.4252L270.2 40.0713L269.492 38.9006C268.784 37.7299 267.722 36.668 266.552 35.8241L265.272 35.0073L262.686 32.9109L259.854 31.0051L258.683 30.3245C257.513 29.6166 256.451 29.2626 255.144 29.1265L253.048 28.9087L251.632 28.2008C250.679 27.738 249.508 27.493 248.093 27.493L240.469 26.4312C240.007 26.3223 239.408 26.3223 238.945 26.3223H233.064C232.601 26.3223 232.002 26.3223 231.539 26.4312L228.245 27.0301L222.609 26.7851C221.901 26.7851 221.085 26.7851 220.377 26.894L218.144 27.2479L215.558 26.894C214.251 26.7851 212.971 26.894 211.773 27.2479L210.739 27.6019L207.091 27.9558L205.212 27.8469C204.041 27.738 202.98 28.3097 202.272 29.6166C201.564 30.7873 201.21 32.0669 201.101 33.5915L200.965 34.5444C200.965 35.1434 200.856 35.8241 200.965 36.423L201.319 39.0095L201.455 42.3038L201.21 44.4274C201.101 45.2442 201.101 45.707 201.21 46.5238L201.673 49.8181L201.101 52.8674L200.856 54.8821C200.747 55.8078 200.747 56.8696 200.965 57.9314L201.319 59.9188L200.856 63.2132C200.747 63.921 200.747 64.275 200.747 64.9828L200.965 68.1682L201.21 71.2175L201.455 75.0836V78.269L201.21 82.3801L200.856 84.2587C200.611 85.4294 200.747 86.8451 201.101 88.1519L201.455 89.3226L201.101 91.3101C200.965 92.3719 200.965 93.2976 201.101 94.3594L201.564 96.9459L201.673 100.485L201.455 103.888V104.596C201.564 106.584 202.272 108.245 203.197 109.17C204.395 110.232 205.675 110.831 207.2 111.185L207.907 111.403L212.127 111.757L215.776 111.893L218.607 111.648L221.656 112.111C222.255 112.219 222.963 112.219 223.535 112.219L226.23 112.002L229.879 112.111L232.356 112.465ZM231.403 82.8429L234.48 78.7318L239.516 78.9769L242.103 81.7811L242.702 88.0158L240.007 90.2483L233.636 90.9562L231.757 86.2461L231.403 82.8429ZM232.002 55.4538L232.111 51.4789L233.282 47.5856L238.809 48.7563L241.286 49.8181L241.395 56.2978L238.945 58.1764L233.636 58.5303L232.002 55.4538Z" fill="#16C27C"/>
<path d="M323.303 112.573L324.719 112.464L331.662 112.11L333.431 112.464C334.602 112.709 335.882 112.355 337.406 111.892L338.822 111.402L341.871 110.477L343.641 110.232C344.812 110.123 345.982 109.878 347.044 109.306L349.059 108.244L351.291 106.828L353.279 106.012C354.096 105.658 354.804 105.413 355.403 104.95L357.989 102.935L360.929 100.703L362.345 99.5319C362.917 98.9602 363.516 98.4701 363.979 97.7623L365.394 95.6659L366.919 93.1883L369.152 89.894L370.077 88.1516C370.567 87.4437 370.785 86.4908 371.03 85.674L371.384 84.0132L372.31 81.6718C372.555 81.0729 372.8 80.61 372.909 79.9022L373.372 77.3157L374.079 74.0214C374.216 73.3408 374.324 72.7418 374.324 71.925L374.079 66.7521L373.862 63.9206C373.725 62.8588 373.508 61.9332 373.018 60.8714L372.446 59.5645L371.139 55.9435L370.322 53.2209C370.077 52.6492 369.859 52.0502 369.505 51.3423L368.553 49.7088L367.273 46.8773L365.149 43.583L363.026 40.9966L360.113 38.1923L357.172 35.9598L356.11 35.0069C355.511 34.5441 355.158 34.4352 354.586 34.0812L351.291 32.4205L349.985 31.7126C349.522 31.3586 348.923 31.1408 348.351 30.8958L346.119 30.079C345.52 29.834 344.812 29.7251 344.24 29.6162L341.654 29.2623L340.347 28.3094C339.53 27.7376 337.896 27.6015 335.664 27.7376L331.308 27.6015L324.147 27.2476L320.608 27.4926H319.437C318.621 27.4926 317.668 27.6015 316.851 27.9554L314.373 28.7722L308.847 30.1879C307.676 30.5419 306.614 31.0047 305.552 31.8487L304.273 32.7744L302.285 34.0812L301.223 34.898L298.991 37.0216L297.221 37.5933C296.05 38.0562 294.88 39.0091 293.818 40.4248L293.328 41.1327L291.585 43.1202C291.34 43.4741 290.986 43.7191 290.741 44.182L289.108 46.5234L287.474 49.3549L286.276 51.3423C285.596 52.6492 285.106 54.0649 284.997 55.4534V56.4063L283.581 59.9185L283.118 61.3342C282.873 62.151 282.873 62.8588 282.873 63.8117V66.2893L282.165 73.3408V75.3282C282.165 76.39 282.41 77.4518 282.764 78.3775L283.363 80.0383L283.69 81.9169C283.826 83.0876 284.289 84.2583 284.888 85.3201L285.46 86.3819L287.12 90.0301L287.828 91.9087C288.182 92.9433 288.863 93.8962 289.571 94.713L290.632 95.8837L292.756 98.0073L295.56 100.703L297.575 102.472C298.283 103.18 299.1 103.643 299.916 103.997L301.795 104.841L304.273 106.828L306.151 107.999C307.213 108.707 308.629 109.17 309.908 109.306L310.725 109.415L313.557 110.341C314.156 110.586 314.618 110.694 315.081 110.831L317.559 111.185L319.328 112.001C320.363 112.464 321.779 112.709 323.303 112.573ZM315.326 66.1532L317.205 62.396L319.083 60.1635L320.962 57.577L324.147 56.2974L331.662 55.8074L334.357 58.176L337.76 60.1635L340.837 66.2893L340.701 73.0957L339.285 76.6078L337.052 80.1472L335.065 82.3797L331.417 83.9043L324.61 84.0132L321.888 82.3797L318.838 80.1472L316.388 76.4989L315.898 73.3408L315.326 66.1532Z" fill="#16C27C"/>
<path d="M422.857 111.539L425.307 111.294C427.322 111.294 429.064 110.477 430.126 109.17C431.297 107.754 431.895 106.012 432.004 103.779L432.358 102.255C432.603 101.411 432.712 100.703 432.712 99.7772L432.603 96.8368L432.494 94.0053L432.358 89.7853L431.895 86.5999L432.358 85.2114C432.712 84.1496 432.603 82.9789 432.358 81.427L432.004 79.4395L432.358 78.1599C432.603 77.207 432.603 76.2541 432.494 74.9745L432.249 73.4499L431.787 69.5566L432.249 66.0445L432.494 63.213L432.603 58.748L435.762 56.2977L440.118 55.5898L444.011 55.3448L447.305 55.5898C449.756 55.6987 451.879 55.2359 453.159 54.174C454.357 53.1122 454.928 51.1248 454.683 48.4022L454.928 47.1226C455.037 46.0608 455.037 45.1079 454.82 44.0733L454.466 42.3036V39.0093L454.928 34.8982L454.82 33.3736C454.683 32.4207 454.003 31.3589 452.805 30.3243C451.634 29.2625 449.864 28.7724 447.877 28.9086L444.229 29.1264L441.778 28.5546C441.071 28.4185 440.363 28.3096 439.655 28.3096H436.469L433.665 28.4185H429.2L425.797 28.9086L424.136 28.5546C423.074 28.3096 421.795 28.3096 420.488 28.6635L419.317 28.9086L415.315 29.2625L411.803 28.7724H408.509L404.152 28.3096L400.858 28.2007L397.809 28.3096C397.346 28.3096 396.747 28.3096 396.284 28.4185L393.589 29.0175H389.941L386.401 29.1264L384.523 28.6635C383.352 28.4185 382.072 29.0175 380.874 30.3243C379.704 31.7128 379.241 33.3736 379.486 35.6061L379.949 39.2543L379.84 42.0586L379.241 43.9372C378.996 44.8901 378.996 45.8157 378.996 46.7686V47.8304C378.996 48.6472 378.996 49.1101 379.241 49.8179L379.486 50.5258C379.84 51.6965 380.303 52.5133 380.874 53.3573L381.228 53.8201C382.072 54.8819 384.06 55.5898 386.646 55.6987L391.002 55.4537L392.636 55.6987C393.698 55.9437 394.868 55.9437 395.93 55.6987L398.272 55.2359L401.811 59.7009L401.702 63.213L401.566 64.6287C401.457 65.5816 401.566 66.3984 401.702 67.2152L402.165 69.3388V72.8509L402.274 76.962L402.029 79.5484L401.92 83.0878L402.029 87.3078L401.92 88.7235C401.811 89.4314 401.811 90.0304 401.92 90.711L402.274 93.2974L402.165 97.2996L401.566 100.485L401.457 102.581C401.457 103.18 401.457 103.888 401.566 104.487L402.274 108.108L403.445 109.415C404.152 110.232 405.813 110.94 408.046 111.049H412.375L415.206 110.695L418.146 111.185L421.441 111.403C421.904 111.403 422.366 111.539 422.857 111.539Z" fill="#16C27C"/>
<path d="M75.9165 236.015L78.6391 235.879C79.4287 235.879 80.2182 235.743 81.0078 235.47L84.0026 234.572L87.6508 232.857L90.4007 232.339C91.7075 232.094 93.0143 231.55 94.0489 230.896L95.4919 229.998L98.3778 228.963C99.6846 228.419 100.583 227.902 101.509 227.112L102.816 225.941L104.64 224.771C105.81 224.117 106.328 222.81 106.192 221.122C106.083 219.298 105.429 217.719 104.231 216.167L102.924 214.452L101.236 211.457L100.202 209.116C99.7935 208.054 99.2762 207.019 98.4867 206.094L96.2814 203.752L95.4919 202.309C94.9746 201.411 93.6677 200.485 91.7075 199.832C89.7472 199.178 87.6508 199.451 85.8267 200.621L82.6958 201.928L78.5302 203.371L71.3426 202.718L66.9048 201.411L61.1602 195.666L59.8534 191.746L60.7518 184.558L61.0241 179.603L64.4273 176.717L67.041 174.24L71.7238 173.205L78.7753 172.552L82.6958 174.104L86.099 175.274L87.5147 175.928C89.3661 176.717 91.0541 176.989 92.497 176.717C93.8039 176.472 95.4919 175.165 96.9348 172.661L98.7589 168.631L100.447 166.807C100.855 166.399 101.236 165.881 101.509 165.364L103.714 161.716L103.986 161.171C104.776 159.619 105.157 158.176 105.157 156.488V155.835C105.157 153.739 104.504 151.915 103.061 150.608C102.026 149.573 100.719 148.784 99.4124 148.375L97.9694 147.994L96.0092 146.306C95.3557 145.653 94.7023 145.244 93.9128 144.863L91.4352 143.556L89.6111 142.767C88.5765 142.249 87.4058 142.113 86.2351 141.977L83.3492 141.732L81.1167 140.943C79.946 140.561 78.7753 140.425 77.6045 140.425L75.372 140.561L66.7687 140.943H65.843C64.5362 140.806 63.1204 140.943 61.8136 141.46L59.7172 142.113L55.7967 143.42L52.5296 144.21C51.8762 144.346 51.3589 144.591 50.7055 144.999L48.8814 145.898L45.6143 147.477C45.2331 147.722 44.6886 147.858 44.1713 148.266L41.6938 149.954L39.7335 151.533C39.2162 152.051 38.4267 152.568 38.0455 153.221L36.0853 155.835L33.9889 158.04C33.6077 158.585 33.1994 158.966 32.9543 159.483L31.3752 161.716L28.7616 165.092L27.727 166.535C26.9374 167.705 26.5563 169.012 26.284 170.319L25.7667 172.416L24.9772 174.621C24.7321 175.41 24.4599 176.336 24.3238 177.371L24.0787 180.365L23.5342 182.462C23.2892 183.388 23.2892 184.558 23.2892 185.457L23.6703 192.644V194.359C23.6703 195.258 23.8065 196.047 24.0787 197.082L24.9772 200.485L25.3856 203.235L26.284 205.849C26.6924 207.264 27.3458 208.326 28.2443 209.497L29.2788 210.668L29.8234 212.9C30.2045 214.316 30.8579 215.378 31.6475 216.412L32.3009 217.338C32.5459 217.719 33.0905 218.236 33.4716 218.645L36.0853 221.122L37.5282 222.81L38.8351 223.981L41.5577 226.214L45.2331 228.555L52.1485 232.203L53.3192 232.748C54.4899 233.265 55.6606 233.51 56.9674 233.646L59.8534 233.919L61.8136 234.708C62.8482 235.225 63.8828 235.361 65.0807 235.47L67.8033 235.743L75.9165 236.015Z" fill="#16C27C"/>
<path d="M176.322 234.163H177.874C179.317 234.163 181.005 233.265 182.066 231.822C183.101 230.515 183.754 229.344 183.999 227.902C184.272 226.459 183.999 225.288 183.482 223.6L183.373 223.083L183.89 219.407C183.999 218.645 184.135 217.719 183.999 216.93L183.89 215.378L184.135 212.492C184.135 211.838 184.272 211.321 184.135 210.804C183.999 208.326 183.101 206.366 181.794 205.304C180.215 204.025 178.146 203.752 176.049 204.27L173.436 204.025C172.782 203.888 172.401 203.888 171.857 203.888L163.634 204.406L159.986 203.888L156.583 203.752H153.071L149.014 199.451L148.225 196.565L147.98 192.399V188.615L148.225 185.075V180.638L148.497 177.371L149.014 173.722L149.15 169.284L148.769 165.5V161.443L148.878 158.04L148.769 154.12L148.361 150.744V150.09C148.225 147.341 147.571 145.38 146.673 144.482C145.747 143.556 143.787 143.039 141.582 142.903L136.735 143.039L133.468 142.903L129.82 143.039L125.655 141.868L122.905 141.977C122.633 141.977 122.251 141.977 121.87 142.113C119.257 142.522 117.432 143.284 116.507 144.591C115.581 146.034 115.064 147.994 115.2 150.226L114.819 154.011L114.546 157.142C114.41 157.931 114.546 158.966 114.683 159.755L115.2 162.886V166.262L114.546 169.148C114.274 170.183 114.41 171.49 114.546 172.552L114.683 173.586L114.029 178.16V182.598L114.683 185.865L114.546 190.684L114.928 193.951L115.2 198.008L114.819 201.139C114.683 201.928 114.683 202.827 114.819 203.616L115.2 205.958L114.546 210.532L114.41 213.145C114.41 213.935 114.41 214.969 114.546 215.759L114.928 217.719V221.367L115.064 225.696C114.928 228.827 115.472 231.032 116.888 232.339C118.195 233.646 120.019 233.918 121.87 233.265L125.763 233.918C126.308 234.055 126.825 234.055 127.343 234.055H129.684L133.468 233.51L136.082 233.918C137.144 234.055 138.315 234.055 139.349 233.918L141.582 233.51L144.195 233.918C145.23 234.055 146.156 234.055 147.19 233.918L149.804 233.51L152.417 233.646L155.821 234.055C156.855 234.163 158.162 234.055 159.197 233.782L161.293 233.265L162.981 233.51C163.634 233.646 164.288 233.646 164.941 233.646L168.862 233.401L172.265 233.646L174.743 234.055C175.26 234.163 175.777 234.163 176.322 234.163Z" fill="#16C27C"/>
<path d="M278.661 234.3L280.104 234.163C281.411 234.055 282.717 233.129 283.507 231.822C284.297 230.515 284.405 228.555 283.643 226.077L282.581 222.81L282.2 219.952C282.064 218.754 281.683 217.719 281.274 216.821L280.104 214.316L278.797 210.94L278.143 207.264L277.245 203.235L276.455 199.042L275.149 196.047L274.223 191.473L273.188 188.343L271.745 183.769L271.364 181.808C271.092 180.774 270.711 179.848 270.194 178.95L268.996 176.717L267.825 172.66L266.654 168.876L266.001 164.711L264.966 160.926L263.523 157.659L262.216 152.813L261.318 149.437L260.773 148.13C260.011 146.17 258.813 144.591 257.643 143.828C256.336 143.039 254.375 142.767 252.17 143.039H251.653L247.732 142.249L244.983 141.977C244.057 141.868 243.022 141.977 242.124 142.113L238.966 142.767L235.59 142.903L231.261 142.522H222.657L221.078 142.767C220.044 142.903 219.009 143.284 218.083 143.828L216.641 144.591C214.816 145.653 213.265 147.204 212.339 149.301C212.067 149.818 211.958 150.09 211.822 150.744L211.168 153.466C211.032 154.011 210.896 154.664 210.896 155.318L210.76 157.795L209.725 160.001C209.344 160.79 209.208 161.58 209.072 162.369L208.554 165.609L207.52 167.705C206.975 168.767 206.594 169.53 206.458 170.591L206.077 173.314L204.77 175.928C204.498 176.336 204.253 176.853 204.117 177.371L203.708 178.814C203.463 179.848 203.191 180.638 203.191 181.672V183.769L202.02 187.825L200.577 191.991L199.679 193.706C199.162 194.741 198.753 196.047 198.753 197.735V199.696L197.583 201.52C196.793 202.582 196.548 204.406 196.548 206.502V207.809L195.486 209.116C194.833 210.014 194.179 211.185 193.798 212.764L193.526 214.316L192.764 217.991L191.838 222.565L190.15 226.595C190.15 226.731 190.014 226.867 189.878 227.003C189.088 228.691 189.224 230.27 190.15 231.822C191.048 233.401 193.281 234.055 195.895 233.646L199.924 233.782L203.463 233.401L205.669 233.782C206.322 233.918 207.112 233.782 207.901 233.782L210.515 233.646L214.299 234.055L219.009 234.163L220.969 233.782C222.14 233.51 223.447 232.857 224.754 231.55C226.061 230.379 226.823 228.419 227.095 225.424V224.771L232.568 220.333L236.243 221.122C236.896 221.258 237.659 221.367 238.312 221.367H240.926L245.908 225.56L246.425 227.656C246.671 228.963 247.868 230.379 249.801 231.958L251.898 233.51L253.994 233.782C254.784 233.918 255.546 233.918 256.336 233.782L259.467 233.401L266.79 233.646H270.956L277.109 234.163C277.626 234.163 278.143 234.3 278.661 234.3ZM232.976 196.32L234.011 192.508L234.528 188.343L235.317 186.001C235.59 185.212 235.726 184.558 235.835 183.632L236.243 180.12L238.312 179.984V183.115C238.312 184.177 238.448 185.212 238.857 186.382L239.51 188.206L240.164 192.399L240.681 196.184L237.278 200.213L232.976 196.32Z" fill="#16C27C"/>
<path d="M331.815 236.015C332.714 236.015 333.775 235.878 334.674 235.606L336.77 234.953L338.73 234.817C340.037 234.708 341.208 234.435 342.379 233.782L344.203 232.747L346.953 232.203C348.123 231.958 349.158 231.441 350.084 230.896L352.425 229.48L355.311 227.384L358.823 223.981L360.674 221.367L362.09 219.951C363.152 218.89 363.914 217.855 364.323 216.684L364.704 215.622C364.976 214.86 365.221 214.207 365.357 213.417L365.766 211.593C365.874 210.94 366.011 210.531 366.011 209.878V204.133C366.011 203.099 365.874 202.173 365.493 201.002L364.568 198.252L363.016 194.604L361.056 190.684C360.266 189.132 359.368 187.689 357.925 186.763L356.754 186.001L355.175 184.286C354.385 183.523 353.487 182.979 352.561 182.462L349.811 181.019L346.163 179.058L342.76 177.779L339.248 176.989L335.844 174.62L332.986 173.45L333.122 168.767L340.282 167.46L343.168 168.359L346.68 170.183C349.049 171.762 351.118 172.279 352.561 171.762C354.004 171.244 355.175 170.074 356.618 168.631L356.999 168.222L358.959 165.228L361.192 161.715L361.709 160.926C362.88 158.585 363.261 155.699 362.362 152.949L362.226 152.568L361.192 150.989C360.538 149.954 359.368 148.919 357.925 148.266L356.754 147.721L354.14 145.897C353.732 145.652 353.078 145.38 352.561 145.135L350.22 144.073C349.566 143.828 348.777 143.556 347.987 143.42L345.373 142.902L343.032 142.249L341.344 141.868L333.639 140.806L328.14 140.289C326.969 140.153 325.798 140.425 324.627 140.67L317.957 142.385L314.309 143.556L311.314 144.482C310.388 144.727 309.599 145.135 308.837 145.652L306.985 146.823L305.025 147.721C303.718 148.375 302.684 149.164 301.649 150.471L298.11 154.773L296.803 156.216C295.632 157.523 295.115 158.966 294.597 160.654L294.189 162.097L293.427 165.364L292.637 171.762C292.501 173.069 292.637 174.375 293.018 175.546L293.808 178.16L294.189 179.603C294.461 180.501 294.843 181.427 295.387 182.325L296.939 184.694C297.211 185.211 297.592 185.456 297.973 186.001L299.825 187.961L301.241 189.649C301.785 190.303 302.438 190.82 303.092 191.337L305.814 193.161L307.775 194.604C308.428 195.121 309.354 195.53 310.116 195.775L312.349 196.564L315.344 198.144C315.888 198.389 316.269 198.661 316.786 198.797L319.4 199.559L323.457 201.52L325.934 203.371L325.662 207.918L319.264 208.571L315.098 208.19L310.906 206.611L306.876 204.923C304.372 203.616 302.302 203.099 300.996 203.616C299.689 204.133 298.763 205.848 297.075 207.536L296.939 207.673L294.734 210.667L292.501 213.798C290.922 215.622 290.269 217.855 290.813 219.951C291.33 222.293 292.12 223.872 293.427 225.043C294.08 225.696 294.843 226.213 295.632 226.594L297.211 227.248L300.07 229.48C300.996 230.134 301.894 230.515 302.956 230.896L304.916 231.55L308.7 232.856L312.076 234.163L315.752 235.089C316.514 235.225 317.304 235.361 318.093 235.361L320.979 235.47L324.491 235.878L331.815 236.015Z" fill="#16C27C"/>
<path d="M414.982 236.015C415.881 236.015 416.943 235.878 417.841 235.606L419.938 234.953L421.898 234.817C423.205 234.708 424.375 234.435 425.546 233.782L427.37 232.747L430.12 232.203C431.291 231.958 432.325 231.441 433.251 230.896L435.592 229.48L438.478 227.384L441.99 223.981L443.842 221.367L445.257 219.951C446.319 218.89 447.082 217.855 447.49 216.684L447.871 215.622C448.143 214.86 448.388 214.207 448.525 213.417L448.933 211.593C449.042 210.94 449.178 210.531 449.178 209.878V204.133C449.178 203.099 449.042 202.173 448.661 201.002L447.735 198.252L446.183 194.604L444.223 190.684C443.433 189.132 442.535 187.689 441.092 186.763L439.921 186.001L438.342 184.286C437.553 183.523 436.654 182.979 435.728 182.462L432.979 181.019L429.33 179.058L425.927 177.779L422.415 176.989L419.012 174.62L416.153 173.45L416.289 168.767L423.45 167.46L426.336 168.359L429.848 170.183C432.216 171.762 434.285 172.279 435.728 171.762C437.171 171.244 438.342 170.074 439.785 168.631L440.166 168.222L442.127 165.228L444.359 161.715L444.876 160.926C446.047 158.585 446.428 155.699 445.53 152.949L445.394 152.568L444.359 150.989C443.706 149.954 442.535 148.919 441.092 148.266L439.921 147.721L437.308 145.897C436.899 145.652 436.246 145.38 435.728 145.135L433.387 144.073C432.734 143.828 431.944 143.556 431.155 143.42L428.541 142.902L426.199 142.249L424.511 141.868L416.807 140.806L411.307 140.289C410.136 140.153 408.966 140.425 407.795 140.67L401.125 142.385L397.476 143.556L394.481 144.482C393.556 144.727 392.766 145.135 392.004 145.652L390.153 146.823L388.192 147.721C386.885 148.375 385.851 149.164 384.816 150.471L381.277 154.773L379.97 156.216C378.799 157.523 378.282 158.966 377.765 160.654L377.356 162.097L376.594 165.364L375.805 171.762C375.668 173.069 375.805 174.375 376.186 175.546L376.975 178.16L377.356 179.603C377.629 180.501 378.01 181.427 378.554 182.325L380.106 184.694C380.379 185.211 380.76 185.456 381.141 186.001L382.992 187.961L384.408 189.649C384.952 190.303 385.606 190.82 386.259 191.337L388.982 193.161L390.942 194.604C391.596 195.121 392.521 195.53 393.284 195.775L395.516 196.564L398.511 198.144C399.055 198.389 399.437 198.661 399.954 198.797L402.567 199.559L406.624 201.52L409.102 203.371L408.829 207.918L402.431 208.571L398.266 208.19L394.073 206.611L390.044 204.923C387.539 203.616 385.47 203.099 384.163 203.616C382.856 204.133 381.93 205.848 380.242 207.536L380.106 207.673L377.901 210.667L375.668 213.798C374.089 215.622 373.436 217.855 373.98 219.951C374.498 222.293 375.287 223.872 376.594 225.043C377.248 225.696 378.01 226.213 378.799 226.594L380.379 227.248L383.237 229.48C384.163 230.134 385.061 230.515 386.123 230.896L388.083 231.55L391.868 232.856L395.244 234.163L398.919 235.089C399.682 235.225 400.471 235.361 401.261 235.361L404.147 235.47L407.659 235.878L414.982 236.015Z" fill="#16C27C"/>
<path d="M34.3973 124.028V83.5316V124.028Z" fill="white"/>
<path d="M34.3973 124.028V83.5316" stroke="white" stroke-width="2"/>
<path d="M29.7692 125.186H37.8685H29.7692Z" fill="white"/>
<path d="M29.7692 125.186H37.8685" stroke="white" stroke-width="2" stroke-linecap="round" stroke-linejoin="round"/>
<path d="M33.8188 75.4322C36.0546 75.4322 37.8685 76.981 37.8685 78.9034C37.8685 80.8197 36.0546 82.3745 33.8188 82.3745C31.5831 82.3745 29.7692 80.8197 29.7692 78.9034C29.7692 76.981 31.5831 75.4322 33.8188 75.4322Z" fill="white" stroke="white" stroke-width="2" stroke-linecap="round" stroke-linejoin="round"/>
<path d="M132.746 171.467V130.971V171.467Z" fill="white"/>
<path d="M132.746 171.467V130.971" stroke="white" stroke-width="2"/>
<path d="M128.118 172.625H136.218H128.118Z" fill="white"/>
<path d="M128.118 172.625H136.218" stroke="white" stroke-width="2" stroke-linecap="round" stroke-linejoin="round"/>
<path d="M132.168 122.871C134.404 122.871 136.218 124.678 136.218 126.921C136.218 129.157 134.404 130.971 132.168 130.971C129.932 130.971 128.118 129.157 128.118 126.921C128.118 124.678 129.932 122.871 132.168 122.871Z" fill="white" stroke="white" stroke-width="2" stroke-linecap="round" stroke-linejoin="round"/>
<path d="M351.428 124.028V83.5316V124.028Z" fill="white"/>
<path d="M351.428 124.028V83.5316" stroke="white" stroke-width="2"/>
<path d="M347.957 125.186H354.9H347.957Z" fill="white"/>
<path d="M347.957 125.186H354.9" stroke="white" stroke-width="2" stroke-linecap="round" stroke-linejoin="round"/>
<path d="M351.428 75.4322C353.345 75.4322 354.9 76.981 354.9 78.9034C354.9 80.8197 353.345 82.3745 351.428 82.3745C349.512 82.3745 347.957 80.8197 347.957 78.9034C347.957 76.981 349.512 75.4322 351.428 75.4322Z" fill="white" stroke="white" stroke-width="2" stroke-linecap="round" stroke-linejoin="round"/>
<path d="M305.147 264.031V223.535V264.031Z" fill="white"/>
<path d="M305.147 264.031V223.535" stroke="white" stroke-width="2"/>
<path d="M301.675 265.188H309.775H301.675Z" fill="white"/>
<path d="M301.675 265.188H309.775" stroke="white" stroke-width="2" stroke-linecap="round" stroke-linejoin="round"/>
<path d="M305.725 215.435C307.961 215.435 309.775 217.249 309.775 219.485C309.775 221.721 307.961 223.535 305.725 223.535C303.489 223.535 301.675 221.721 301.675 219.485C301.675 217.249 303.489 215.435 305.725 215.435Z" fill="white" stroke="white" stroke-width="2" stroke-linecap="round" stroke-linejoin="round"/>
</svg>
